<svg xmlns="http://www.w3.org/2000/svg" viewBox="0 0 1100 600" role="img" aria-labelledby="title desc">
  <title id="title">Frontier Intelligence Capital Indexed NAV</title>
  <desc id="desc">Indexed NAV from April 1, 2026 to May 12, 2026, starting at 100, with reconciled May 8 value of 158.80 and latest estimate of 162.96.</desc>
  <rect width="1100" height="600" fill="#ffffff"/>
  <rect x="1" y="1" width="1098" height="598" fill="#ffffff" stroke="#d9deea"/>
  <text x="64" y="66" font-family="Inter, -apple-system, BlinkMacSystemFont, Segoe UI, sans-serif" font-size="24" font-weight="700" fill="#101827">Indexed NAV</text>
  <text x="64" y="98" font-family="Inter, -apple-system, BlinkMacSystemFont, Segoe UI, sans-serif" font-size="14" fill="#647084">Base 100 on Apr 1, 2026 · Account size not disclosed</text>
  <text x="866" y="66" font-family="Inter, -apple-system, BlinkMacSystemFont, Segoe UI, sans-serif" font-size="30" font-weight="700" fill="#0b2748">162.96</text>
  <text x="866" y="94" font-family="Inter, -apple-system, BlinkMacSystemFont, Segoe UI, sans-serif" font-size="14" fill="#647084">latest estimate · May 12, 2026</text>

  <line x1="96" y1="446" x2="1010" y2="446" stroke="#d9deea"/>
  <line x1="96" y1="371" x2="1010" y2="371" stroke="#e7eaf1"/>
  <line x1="96" y1="296" x2="1010" y2="296" stroke="#e7eaf1"/>
  <line x1="96" y1="221" x2="1010" y2="221" stroke="#e7eaf1"/>
  <line x1="96" y1="146" x2="1010" y2="146" stroke="#e7eaf1"/>

  <text x="50" y="451" font-family="Inter, -apple-system, BlinkMacSystemFont, Segoe UI, sans-serif" font-size="12" fill="#647084">100</text>
  <text x="50" y="376" font-family="Inter, -apple-system, BlinkMacSystemFont, Segoe UI, sans-serif" font-size="12" fill="#647084">120</text>
  <text x="50" y="301" font-family="Inter, -apple-system, BlinkMacSystemFont, Segoe UI, sans-serif" font-size="12" fill="#647084">140</text>
  <text x="50" y="226" font-family="Inter, -apple-system, BlinkMacSystemFont, Segoe UI, sans-serif" font-size="12" fill="#647084">160</text>
  <text x="50" y="151" font-family="Inter, -apple-system, BlinkMacSystemFont, Segoe UI, sans-serif" font-size="12" fill="#647084">180</text>

  <defs>
    <linearGradient id="area" x1="0" x2="0" y1="0" y2="1">
      <stop offset="0%" stop-color="#0b2748" stop-opacity="0.18"/>
      <stop offset="100%" stop-color="#0b2748" stop-opacity="0"/>
    </linearGradient>
  </defs>

  <!-- y = 446 - (nav-100)*3.75 -->
  <path d="M 96 446 C 300 414, 515 360, 705 340 C 825 326, 888 236, 930 226 C 965 218, 990 214, 1010 210" fill="none" stroke="#0b2748" stroke-width="4" stroke-linecap="round"/>
  <path d="M 96 446 C 300 414, 515 360, 705 340 C 825 326, 888 236, 930 226 C 965 218, 990 214, 1010 210 L 1010 446 L 96 446 Z" fill="url(#area)"/>

  <circle cx="96" cy="446" r="6" fill="#0b2748"/>
  <circle cx="705" cy="340" r="6" fill="#0b2748"/>
  <circle cx="930" cy="226" r="7" fill="#bfa46a" stroke="#0b2748" stroke-width="3"/>
  <circle cx="1010" cy="210" r="7" fill="#ffffff" stroke="#0b2748" stroke-width="3"/>

  <text x="76" y="484" font-family="Inter, -apple-system, BlinkMacSystemFont, Segoe UI, sans-serif" font-size="13" fill="#647084">Apr 1</text>
  <text x="672" y="484" font-family="Inter, -apple-system, BlinkMacSystemFont, Segoe UI, sans-serif" font-size="13" fill="#647084">Apr 30</text>
  <text x="900" y="484" font-family="Inter, -apple-system, BlinkMacSystemFont, Segoe UI, sans-serif" font-size="13" fill="#647084">May 8</text>
  <text x="970" y="484" font-family="Inter, -apple-system, BlinkMacSystemFont, Segoe UI, sans-serif" font-size="13" fill="#647084">May 12</text>

  <text x="112" y="432" font-family="Inter, -apple-system, BlinkMacSystemFont, Segoe UI, sans-serif" font-size="13" fill="#101827">100.00</text>
  <text x="622" y="324" font-family="Inter, -apple-system, BlinkMacSystemFont, Segoe UI, sans-serif" font-size="13" fill="#101827">128.13</text>
  <text x="840" y="207" font-family="Inter, -apple-system, BlinkMacSystemFont, Segoe UI, sans-serif" font-size="13" font-weight="700" fill="#101827">158.80</text>
  <text x="938" y="191" font-family="Inter, -apple-system, BlinkMacSystemFont, Segoe UI, sans-serif" font-size="13" font-weight="700" fill="#101827">162.96</text>

  <rect x="64" y="520" width="972" height="1" fill="#e7eaf1"/>
  <text x="64" y="548" font-family="Inter, -apple-system, BlinkMacSystemFont, Segoe UI, sans-serif" font-size="12" fill="#647084">May 8 value is reconciled from Fidelity investment income export. May 12 value is based on latest portfolio positions and remains preliminary.</text>
</svg>
