<svg xmlns="http://www.w3.org/2000/svg" viewBox="0 0 1100 600" role="img" aria-labelledby="title desc">
  <title id="title">Frontier Intelligence Capital Indexed NAV</title>
  <desc id="desc">Indexed NAV from April 1, 2026 to July 1, 2026, base 100, cumulative net profit over cumulative net deposits: 129.76 (May 1), 202.03 (Jun 1), 196.73 (Jul 1).</desc>
  <rect width="1100" height="600" fill="#ffffff"/>
  <rect x="1" y="1" width="1098" height="598" fill="#ffffff" stroke="#d9deea"/>
  <text x="64" y="66" font-family="Inter, -apple-system, BlinkMacSystemFont, Segoe UI, sans-serif" font-size="24" font-weight="700" fill="#101827">Indexed NAV</text>
  <text x="64" y="98" font-family="Inter, -apple-system, BlinkMacSystemFont, Segoe UI, sans-serif" font-size="14" fill="#647084">Base 100 on Apr 1, 2026 - Net profit over net deposits - Account size not disclosed</text>
  <text x="866" y="66" font-family="Inter, -apple-system, BlinkMacSystemFont, Segoe UI, sans-serif" font-size="30" font-weight="700" fill="#0b2748">196.73</text>
  <text x="866" y="94" font-family="Inter, -apple-system, BlinkMacSystemFont, Segoe UI, sans-serif" font-size="14" fill="#647084">June month-end record - Jul 1, 2026</text>
  <line x1="96" y1="446" x2="1010" y2="446" stroke="#d9deea"/>
  <line x1="96" y1="371" x2="1010" y2="371" stroke="#e7eaf1"/>
  <line x1="96" y1="296" x2="1010" y2="296" stroke="#e7eaf1"/>
  <line x1="96" y1="221" x2="1010" y2="221" stroke="#e7eaf1"/>
  <line x1="96" y1="146" x2="1010" y2="146" stroke="#e7eaf1"/>
  <text x="50" y="451" font-family="Inter, -apple-system, BlinkMacSystemFont, Segoe UI, sans-serif" font-size="12" fill="#647084">100</text>
  <text x="50" y="376" font-family="Inter, -apple-system, BlinkMacSystemFont, Segoe UI, sans-serif" font-size="12" fill="#647084">125</text>
  <text x="50" y="301" font-family="Inter, -apple-system, BlinkMacSystemFont, Segoe UI, sans-serif" font-size="12" fill="#647084">150</text>
  <text x="50" y="226" font-family="Inter, -apple-system, BlinkMacSystemFont, Segoe UI, sans-serif" font-size="12" fill="#647084">175</text>
  <text x="50" y="151" font-family="Inter, -apple-system, BlinkMacSystemFont, Segoe UI, sans-serif" font-size="12" fill="#647084">200</text>
  <defs><linearGradient id="area" x1="0" x2="0" y1="0" y2="1"><stop offset="0%" stop-color="#0b2748" stop-opacity="0.18"/><stop offset="100%" stop-color="#0b2748" stop-opacity="0"/></linearGradient></defs>
  <path d="M 96 446.0 C 217.9 446.0, 278.8 356.7, 400.7 356.7 C 522.5 356.7, 583.5 139.9, 705.3 139.9 C 827.2 139.9, 888.1 155.8, 1010.0 155.8" fill="none" stroke="#0b2748" stroke-width="4" stroke-linecap="round"/>
  <path d="M 96 446.0 C 217.9 446.0, 278.8 356.7, 400.7 356.7 C 522.5 356.7, 583.5 139.9, 705.3 139.9 C 827.2 139.9, 888.1 155.8, 1010.0 155.8 L 1010 446 L 96 446 Z" fill="url(#area)"/>
  <circle cx="96.0" cy="446.0" r="6" fill="#0b2748"/>
  <circle cx="400.7" cy="356.7" r="7" fill="#bfa46a" stroke="#0b2748" stroke-width="3"/>
  <circle cx="705.3" cy="139.9" r="7" fill="#bfa46a" stroke="#0b2748" stroke-width="3"/>
  <circle cx="1010.0" cy="155.8" r="7" fill="#bfa46a" stroke="#0b2748" stroke-width="3"/>
  <text x="96" y="486" font-family="Inter, -apple-system, BlinkMacSystemFont, Segoe UI, sans-serif" font-size="13" fill="#647084" text-anchor="start">Apr 1</text>
  <text x="400.67" y="486" font-family="Inter, -apple-system, BlinkMacSystemFont, Segoe UI, sans-serif" font-size="13" fill="#647084" text-anchor="middle">May 1</text>
  <text x="705.33" y="486" font-family="Inter, -apple-system, BlinkMacSystemFont, Segoe UI, sans-serif" font-size="13" fill="#647084" text-anchor="middle">Jun 1</text>
  <text x="1010" y="486" font-family="Inter, -apple-system, BlinkMacSystemFont, Segoe UI, sans-serif" font-size="13" fill="#647084" text-anchor="end">Jul 1</text>
</svg>
